<?xml version="1.0" encoding="UTF-8"?><svg id="Ebene_2" xmlns="http://www.w3.org/2000/svg" viewBox="0 0 30.47 37.3"><defs><style>.cls-1{fill:#183941;stroke-width:0px;}</style></defs><g id="Ebene_1-2"><path class="cls-1" d="m8.04,37.3c-1.05-.82-1.48-1.88-1.43-3.23.07-1.83,0-3.67.03-5.5,0-.49-.13-1.09.46-1.36.68-.31,1.07.24,1.48.65.31.31.62.63.88.98.75,1.06,1.42,1.47,2.06-.09.27-.67.86-1.33,1.47-.67,1.39,1.5,1.84.29,2.47-.66.24-.36.46-.75.75-1.07.26-.29.63-.39.98-.12.36.27.32.65.11.98-.76,1.16-1.44,2.39-2.34,3.44-1.12,1.31-1.5-.41-2.25-.69q-1.85,2.41-4.46-.16c-.47,1.72-.25,3.37-.16,5,.05.94.76,1.17,1.56,1.17,3.51,0,7.03,0,10.54.01,1.24,0,1.69-.63,1.68-1.78-.01-1.38,0-2.77,0-4.16-.28,0-.44-.04-.55,0-.66.29-1.25,1.63-1.95.75-.73-.9.54-1.46,1.15-1.96.71-.58,1.34-1.83,2.27-1.44,1.1.47.61,1.84.57,2.81-.1,2.41.64,4.99-1.24,7.1h-14.07Z"/><path class="cls-1" d="m30.47,25.4c-.71.02-1.43.06-2.14.06-.51,0-1.09-.05-1.04-.75.04-.71.64-.63,1.14-.63.72-.01,1.41.11,2.05.44v.88Z"/><path class="cls-1" d="m13.27,7.32c0,.73-.06,1.47.01,2.2.19,1.96-.23,3.31-2.21,4.45-3.47,2.01-3.76,6.21-1.12,9.26.59.68,2.1,1.5,1.1,2.42-.83.76-1.53-.75-2.12-1.38-3.4-3.62-2.95-8.48,1.15-11.4,1.35-.97,1.95-1.96,1.83-3.61-.13-1.97-.02-3.96-.04-5.94,0-.5.09-1.19-.19-1.48C9.86-.11,11.37,0,12.77,0c1.76,0,3.51,0,5.27,0,.42,0,.95-.07.99.56.05.65-.4.96-.95.95-.94-.02-1.88-.16-2.83-.24-1.34-.11-2.09.47-2.09,1.87,0,1.39,0,2.78,0,4.17.04,0,.08,0,.12,0Z"/><path class="cls-1" d="m23.37,20.07c0,1.67-2.4,4.76-3.57,4.87-1.01.09-1.3-.83-1.71-1.47-.81-1.23-1.42-1.7-2.41-.07-1.19,1.93-1.8,1.86-3.11-.02-.33-.48-.85-1.03-.34-1.55.44-.46.93.05,1.28.4,1.31,1.28,1.42-.37,1.78-.85,1.49-1.97,1.54-1.97,3.08-.02.45.57.49,1.92,1.74,1.44,1.27-.49,1.96-1.44,1.81-2.91-.28-2.78-1.29-5.12-3.9-6.45-.97-.5-1.34-1.17-1.31-2.27.08-2.2.01-4.4.03-6.6,0-.4-.12-.99.47-1.06.66-.08.85.45.86,1,.02,1.83.06,3.67,0,5.5-.04,1.14.29,1.94,1.29,2.55,2.93,1.79,3.84,4.64,4,7.51Z"/><path class="cls-1" d="m3.73,21.78c-.09.52-.24.92-.68.78-.7-.22-1.26-.72-1.42-1.44-.08-.36.2-.89.77-.72.73.22,1.17.75,1.33,1.38Z"/><path class="cls-1" d="m3.7,27.72c-.15.73-.74,1.16-1.42,1.45-.42.18-.82-.19-.78-.5.11-.87.72-1.45,1.52-1.7.35-.1.67.22.67.76Z"/><path class="cls-1" d="m27.66,29.14c-.7-.26-1.3-.65-1.52-1.42-.13-.46.31-.76.61-.73.77.09,1.34.57,1.53,1.36.11.47-.3.6-.63.79Z"/><path class="cls-1" d="m26.9,22.56c-.4-.02-.75-.27-.74-.6.03-.91.72-1.36,1.48-1.58.26-.08.71.27.64.69-.13.77-.69,1.21-1.38,1.5Z"/><path class="cls-1" d="m1.36,24.08c.53.07,1.32-.17,1.26.72-.05.81-.81.66-1.35.67-.56,0-1.31.1-1.26-.74.05-.84.82-.59,1.35-.64Z"/></g></svg>