<?xml version="1.0" encoding="UTF-8"?><svg id="Ebene_2" xmlns="http://www.w3.org/2000/svg" viewBox="0 0 32.67 30.82"><defs><style>.cls-1{fill:#183941;stroke-width:0px;}</style></defs><g id="Ebene_1-2"><path class="cls-1" d="m32.67,11.72v.5c-1.12.66-2.39.86-3.61,1.21-.68.2-.89.48-.88,1.19.04,3.88-.01,7.77.04,11.66.01.93-.32,1.31-1.17,1.55-3.33.93-6.66,1.89-9.98,2.87-.54.16-1.02.16-1.56,0-3.32-.98-6.64-1.96-9.98-2.86-.95-.26-1.2-.74-1.19-1.67.05-3.8,0-7.61.03-11.41,0-.76-.1-1.23-.98-1.36-.81-.13-1.58-.45-2.37-.68-.39-.11-.85-.15-.98-.63-.15-.55.29-.81.62-1.11.95-.86,1.89-1.73,2.86-2.57.41-.35.46-.57,0-.95-.95-.8-1.86-1.64-2.76-2.49-.34-.32-.89-.56-.72-1.18.16-.61.76-.58,1.21-.72C4.67,2.03,8.11,1.02,11.55,0c.56-.07.92.26,1.29.6.94.87,1.91,1.7,2.83,2.59.46.45.76.44,1.21,0,.91-.89,1.91-1.7,2.83-2.59.53-.5,1.01-.65,1.76-.42,2.75.85,5.54,1.57,8.29,2.42.99.31,2.11.35,2.91,1.16v.5c-1.21,1.06-2.39,2.15-3.63,3.17-.55.46-.3.7.08,1.04,1.19,1.07,2.36,2.16,3.54,3.24Zm-15.68,1.07c0,5.45,0,10.63,0,15.82,0,.87.54.53.9.43,2.73-.78,5.45-1.61,8.18-2.38.53-.15.76-.35.75-.92-.02-3.63-.02-7.27,0-10.9,0-.59-.19-.71-.74-.53-1.42.44-2.86.79-4.27,1.27-.91.31-1.62.28-2.32-.48-.71-.77-1.54-1.42-2.51-2.3Zm-1.41,0c-.88.79-1.64,1.36-2.25,2.05-.82.93-1.67,1.12-2.83.67-1.26-.49-2.61-.75-3.91-1.17-.65-.21-.87-.11-.87.63.03,3.55.03,7.1,0,10.66,0,.68.27.9.89,1.07,2.66.74,5.31,1.52,7.94,2.33.8.24,1.05.12,1.04-.78-.05-3.59-.02-7.19-.02-10.78,0-1.47,0-2.94,0-4.67ZM7.57,7.91c1.59.49,2.88.89,4.17,1.27q4.56,1.34,9.15-.04c1.27-.38,2.54-.77,4.09-1.24-2.89-.85-5.45-1.6-8.02-2.36-.49-.15-.97-.12-1.46.03-2.53.75-5.06,1.49-7.94,2.33Zm7.17-3.52c-2.14-2.78-2.72-2.98-5.86-2.11-.36.1-.72.18-1.07.29-1.87.56-3.74,1.12-5.75,1.71.93.85,1.76,1.54,2.5,2.31.48.5.95.51,1.55.33,2.84-.85,5.68-1.67,8.63-2.53Zm15.78,7.19c-1.05-.95-1.96-1.77-2.86-2.6-.24-.22-.49-.27-.79-.18-3.02.89-6.04,1.78-9.21,2.72.94.86,1.79,1.57,2.57,2.35.44.45.85.48,1.42.31,2.87-.86,5.76-1.69,8.86-2.6Zm-12.85-7.24c3.15.92,6.02,1.77,8.9,2.6.34.1.72.26,1.05-.05.92-.84,1.83-1.68,2.87-2.63-3.19-.94-6.18-1.82-9.17-2.69-.28-.08-.56-.08-.8.15-.89.83-1.8,1.65-2.85,2.62ZM2.03,11.59c3.17.92,6.16,1.78,9.15,2.66.34.1.6.12.89-.16.89-.85,1.81-1.66,2.83-2.58-3.19-.94-6.22-1.83-9.26-2.72-.25-.07-.48-.05-.68.14-.93.86-1.87,1.7-2.92,2.65Z"/></g></svg>