<?xml version="1.0" encoding="UTF-8"?><svg id="Ebene_2" xmlns="http://www.w3.org/2000/svg" viewBox="0 0 30.99 30.77"><defs><style>.cls-1{fill:#183941;stroke-width:0px;}</style></defs><g id="Ebene_1-2"><path class="cls-1" d="m30.99,24.89c-7.59-.3-14.17,3.25-21.05,5.62-1.73.6-2.5.19-3.02-1.52-.81-2.63-1.82-5.2-2.75-7.79-.14-.4-.47-.89.05-1.13.67-.31.85.32,1.02.79.76,2.12,1.52,4.23,2.25,6.36.89,2.61.88,2.63,3.41,1.65.91-.35,1.94-.5,2.72-1.25-.2-.13-.32-.27-.43-.27-4.23.26-4.21.26-4.89-3.92-.75-4.59-1.51-9.17-2.3-13.75-.1-.6-.07-1.7-.67-1.66-1.26.08-2.62.32-3.68,1.11-.7.52-.31,1.29-.04,1.99.84,2.16,1.64,4.34,2.44,6.52.14.38.5.87-.09,1.12-.7.29-.8-.32-.97-.81-.92-2.6-1.82-5.21-2.8-7.78-.45-1.18-.06-1.78,1.06-2.12.83-.25,1.64-.59,2.47-.84.95-.29,1.83-.56,1.53-1.89-.16-.72.33-1.04.97-1.18.21-.05.42-.13.64-.15,2.29-.18,4.5-.45,4.53-3.53,4.42,0,8.84.02,13.25,0,.68,0,1.47.31,2-.44h.44c.96,1.66,2.5,2.74,3.93,3.93v20.96Zm-14.21.58c-1.63-.5-2.87-.27-4.09-.3-1.12-.03-1.78-.38-1.75-1.65.05-2.55,0-5.09.02-7.64,0-.41-.1-1,.52-.99.56.01.56.59.56,1.01.02,2.04.08,4.08-.01,6.11-.07,1.45.31,2.05,1.92,2.02,4.72-.1,9.45-.08,14.18,0,1.47.02,1.81-.47,1.78-1.9-.09-5.02-.1-10.04.03-15.05.04-1.59-.47-2.15-1.97-1.99-1.6.17-2.6-.34-2.28-2.14.27-1.49-.48-1.7-1.71-1.68-3.34.05-6.69.1-10.03-.02-1.6-.06-1.96.55-1.91,2.01.09,2.98.04,5.96.01,8.95,0,.51.26,1.36-.63,1.32-.7-.03-.44-.79-.45-1.25-.03-1.96.06-3.93-.05-5.89-.03-.64.64-2.23-.96-1.69-1.19.4-3.79-.85-3.35,2.03.97,6.24,2.09,12.46,3.16,18.68.11.64.2,1.36,1.18,1.17,1.82-.35,3.63-.68,5.85-1.09Zm-2.11,1.76c-.13-.04-.25-.12-.36-.11-.11.02-.21.13-.31.2.16.05.32.12.49.14.05,0,.11-.14.18-.23Z"/><path class="cls-1" d="m26.62,0c-.53.75-1.32.44-2,.44-4.42.02-8.84,0-13.25,0,0-.15-.02-.3-.03-.45h15.28Z"/><path class="cls-1" d="m14.67,27.24c-.07.09-.13.24-.18.23-.17-.02-.33-.09-.49-.14.1-.07.2-.18.31-.2.11-.02.23.06.36.11Z"/><path class="cls-1" d="m21.14,6.7c1.89,0,3.77-.01,5.66,0,.47,0,1.15-.12,1.13.63-.02.55-.61.54-1.03.54-3.92.01-7.83.01-11.75.01-.45,0-.97-.06-.91-.64.05-.54.58-.55,1.02-.55,1.96,0,3.92,0,5.87,0Z"/><path class="cls-1" d="m21.05,19.62c1.96,0,3.93,0,5.89,0,.4,0,.97-.13.99.5.02.58-.52.65-.94.65-3.92.02-7.85.01-11.77.02-.48,0-1-.12-1-.61,0-.77.71-.55,1.16-.56,1.89-.02,3.78,0,5.67,0Z"/><path class="cls-1" d="m20.98,17.49c-1.95,0-3.9,0-5.86,0-.34,0-.8.08-.86-.41-.08-.59.37-.71.83-.71,3.98-.02,7.95-.03,11.93-.02.39,0,.96.09.87.69-.09.59-.66.44-1.05.44-1.95.02-3.9,0-5.86,0Z"/><path class="cls-1" d="m21.15,14.38c-1.74,0-3.49.02-5.23,0-.61,0-1.58.26-1.63-.6-.05-.98.95-.63,1.52-.63,3.56-.03,7.11-.03,10.67,0,.52,0,1.4-.27,1.41.53.01.94-.92.69-1.52.7-1.74.03-3.48.01-5.23.01Z"/><path class="cls-1" d="m21.1,9.94c1.89,0,3.78-.02,5.67.01.45,0,1.17-.18,1.13.59-.03.55-.64.47-1.04.47-3.85.01-7.7.01-11.55,0-.39,0-1,.14-1.01-.47-.01-.78.7-.58,1.14-.59,1.89-.03,3.78-.01,5.67-.01Z"/></g></svg>