<?xml version="1.0" encoding="UTF-8"?><svg id="Ebene_2" xmlns="http://www.w3.org/2000/svg" viewBox="0 0 35.52 35.51"><defs><style>.cls-1{fill:#183941;stroke-width:0px;}</style></defs><g id="Ebene_2-2"><path class="cls-1" d="m23.97.01c1.36.76,2.29,1.93,3.01,3.27.44.82.89.9,1.72.44.61-.34,1.33-1.23,2.09-.5.74.71-.09,1.46-.35,2.14-.88,2.24-1.82,4.45-2.77,6.66-.25.57-.33,1.59-1.3,1.16-.84-.37-.3-1.09-.07-1.66.8-1.99,1.62-3.97,2.61-6.39-1.58,1.29-2.31.57-2.8-.53-1.16-2.62-3.14-3.56-5.93-3.15-1.04.15-2.13.02-3.4.02,1.67,2.43,3.18,4.71,4.78,6.92.7.97,1.01,1.73-.5,2.28.2.13.25.2.32.21.61.19,1.65.05,1.49,1.01-.19,1.11-1.19.51-1.84.45-.83-.08-1.63-.35-2.45-.5-.45-.08-.74-.31-.78-.75-.04-.38.25-.59.56-.79.61-.37,1.76-.5,1.75-1.1-.02-.72-.77-1.42-1.34-2.34-1.02,1.4-2,2.65-2.87,3.98-.6.93-1.15,1.1-2.15.5-2.28-1.35-4.64-2.59-6.98-3.82-.86-.45-1.04-.93-.42-1.72,1-1.28,1.97-2.58,2.93-3.9.73-1,1.84-1.42,2.87-1.95h11.84-.01Zm-10.65,1.5c-1.67.03-4.93,2.65-5.15,4.57-.15,1.24,1.75,1.28,2.65,1.98.35.27.77.44,1.15.65,1.74.95,3.2.6,4.37-1.05,1.47-2.06,1.44-2.05,0-4.17-.8-1.18-1.78-1.95-3.03-1.98h0Z"/><path class="cls-1" d="m35.51,21.61c-2.08,2.53-3.83,5.3-5.67,8-1.29,1.89-2.88,3.09-5.25,2.94-.69-.04-1.02.15-.92.89.05.39,0,.79,0,1.18,0,.38-.14.69-.48.83-.37.16-.68-.04-.91-.31-1.9-2.13-3.8-4.27-5.7-6.4-.35-.39-.36-.78-.05-1.2,1.15-1.6,2.29-3.21,3.44-4.8.27-.37.63-.73,1.11-.4.52.36.38.87.07,1.3-.87,1.25-1.75,2.5-2.66,3.72-.32.43-.54.74-.05,1.25,1.21,1.27,2.36,2.61,3.85,4.27-.38-1.86.58-1.9,1.58-1.8,2.2.22,3.77-.64,4.91-2.55.95-1.6,2.1-3.08,3.34-4.86-2.75,0-5.27.04-7.8-.02-.73-.02-2.03.51-2.01-.74.02-1.21,1.31-.61,2.05-.7.63-.08,1.28-.02,2-.02-.02-.75-.63-1.1-.93-1.61-.25-.43-.38-.83.07-1.17.47-.37.82-.08,1.13.28.06.07.15.15.18.23,1.04,2.58,3.24,2.41,5.41,2.27,1.52-.1,2.21-1.22,1.53-2.55-.81-1.57-1.74-3.09-2.56-4.65-.3-.57-.59-.52-1.04-.23-.7.45-1.44.85-2.15,1.29-.42.26-.81.38-1.16-.1-.35-.49-.1-.87.3-1.12,1.13-.7,2.27-1.38,3.42-2.04.77-.44,1.13.05,1.48.68,1.14,2.04,2.33,4.05,3.5,6.07v2.07h0Z"/><path class="cls-1" d="m2.63,11.86c1.3,1.42,1.57,2.91.8,4.45-.55,1.1-1.13,2.18-1.64,3.3-.67,1.48,0,2.56,1.64,2.58,3.25.04,6.5.05,9.75,0,1.19-.02,1.69.3,1.64,1.58-.09,2.41-.09,4.83,0,7.24.05,1.27-.44,1.68-1.64,1.57-.88-.08-1.77-.01-2.66-.02-1.8,0-3.25-.75-4.29-2.2-1.92-2.68-3.8-5.38-5.69-8.09-.71-1.02-.7-2.13-.17-3.23.57-1.2,1.1-2.43,1.8-3.55.63-1,.45-1.66-.43-2.35-.54-.42-1.02-.93-1.45-1.47-.56-.71-.3-1.27.57-1.29,3.1-.05,6.21-.02,9.31-.02.53,0,.88.26.85.79-.05.65-.56.7-1.09.7-2.35,0-4.69,0-7.31,0h0Zm.79,11.82c1.12,1.63,2.2,2.97,3.03,4.45,1.32,2.36,3.23,3.27,5.87,2.97.69-.08,1.05-.1,1.02-.95-.07-1.87-.05-3.74,0-5.61.02-.75-.26-.89-.94-.88-2.9.03-5.8.01-8.97.01h0Z"/><path class="cls-1" d="m17.23,13.33c.59.23,1.91-.52,1.9.74,0,1.23-1.3.58-2.03.73-.35.07-.85-.12-.82.53.02.46-.17,1.04.65.98.46-.03.76.25.78.7.01.45-.3.76-.74.74-.79-.05-.7.45-.7.95,0,.75.56.47.95.55.7.14,1.91-.44,1.91.71,0,1.28-1.27.74-1.99.76-2.35.06-2.36.02-2.36-2.26v-2.8c0-1.55.81-2.32,2.44-2.32Z"/><path class="cls-1" d="m8.88,17.05c0-.54-.05-1.09,0-1.63.09-.86-.5-2.1,1.21-2.12,1.89-.02,2.97.56,3.19,1.9.2,1.2-.61,2.42-1.93,2.49-1.04.05-1.08.52-1.01,1.27.02.3,0,.59,0,.89,0,.45-.19.79-.65.84-.56.05-.79-.34-.8-.83-.03-.94,0-1.87,0-2.81h0,0Zm1.93-2.25c-.48-.13-.46.3-.45.71.01.36-.12.81.52.79.5-.02.89-.18.93-.7.04-.54-.35-.75-1-.79h0Z"/><path class="cls-1" d="m22.9,13.33h2.07c.51,0,.88.21.85.78-.02.47-.34.75-.79.68-1.45-.25-1.42.63-1.37,1.64.05.93.03,1.87,0,2.81-.01.61.18,1.49-.76,1.45-.91-.04-.69-.91-.7-1.52-.02-.74,0-1.48,0-2.22-.02-1.08.45-2.49-1.56-2.19-.38.06-.6-.33-.59-.71,0-.39.25-.67.64-.69.74-.03,1.48,0,2.21,0h0s0-.01,0-.01Z"/></g></svg>