<?xml version="1.0" encoding="UTF-8"?><svg id="Ebene_2" xmlns="http://www.w3.org/2000/svg" viewBox="0 0 35.43 35.43"><defs><style>.cls-1{fill:#183941;stroke-width:0px;}</style></defs><g id="Ebene_2-2"><g id="Ebene_1-2"><path class="cls-1" d="m33.28,35.41c-10.71,0-21.43-.01-32.14.02C.25,35.43,0,35.27,0,34.32c.05-7.79.03-15.57.03-23.36,1.06-1.9,2.88-1.47,4.55-1.47,1.8,0,2.44.71,2.55,2.47.1,1.52-.76,3.61.38,4.41,1.06.74,3.03.13,4.6.19.73.03.92-.22.89-.92-.05-1.27-.05-2.55,0-3.83.07-1.79,1.03-2.35,3.47-2.37,1.88-.02,1.1,1.31,1.23,2.17.08.56.02,1.14.02,1.83.51-.5.74-.87.66-1.51-.13-.92-.05-1.86-.07-2.79-.02-.59.16-1.23.72-1.31,1.54-.21,3.19-.52,4.61.14,1.11.52.37,1.88.56,2.85.03.14-.13.4.24.42.32-.86.6-1.74.98-2.58.87-1.96,1.57-3.95,1.14-6.16-.05-.23.03-.49-.01-.73-.18-1.3.23-1.98,1.67-1.75.43.07.88.01,1.32.01,2.91,0,3.01,0,2.86,2.98-.07,1.54-.01,2.99.7,4.35,2.69,5.21,2.67,10.76,1.94,16.35-.3,2.3-.76,4.58-.02,6.84.7,2.11.11,3.66-1.71,4.84h0ZM1.22,22.45v10.61c0,.61-.07,1.2.85,1.19,2.21-.03,4.41-.03,6.62,0,.61,0,.71-.2.63-.78-.25-1.85-.54-3.7-.63-5.55-.07-1.56-.54-2.99-1.01-4.43-.46-1.43.88-2.33,1.07-3.57.12-.79.54-1.03,1.31-1.01,1.76.05,3.53-.05,5.29.04,1.02.06,1.21-.32,1.17-1.24-.07-1.91,0-3.83-.04-5.74-.01-.51.42-1.34-.76-1.31-1,.03-1.6.31-1.58,1.42.03,1.32-.03,2.65.02,3.97.05,1.18-.44,1.72-1.64,1.69-2.45-.03-4.91-.03-7.36,0-1.22.02-1.66-.56-1.62-1.73.04-1.42-.08-2.86.04-4.27.1-1.16-.51-1.16-1.31-1.07-1.01.11-1.07.81-1.07,1.61.01,3.39,0,6.77,0,10.16Zm25.21,5.89h.09c0,1.71.04,3.42-.02,5.13-.02.56.05.79.67.77,1.71-.04,3.43.05,5.15-.04,1.2-.07,2.09-.94,1.76-2.06-.93-3.17-.72-6.3-.1-9.45.14-.69-.06-.84-.71-.83-1.86.03-3.73.09-5.58-.02-1.15-.07-1.27.5-1.26,1.38.02,1.7,0,3.41,0,5.11h0Zm-1.45-14.14c1.12,1.81,1.76,3.55,1.48,5.53-.07.52.05,1.01.88.98,2-.07,4.01-.05,6.02-.01.67.02.82-.23.81-.84-.04-1.62-.02-3.23,0-4.85,0-.49,0-.83-.67-.82-2.77.03-5.54.02-8.52.02h0Zm-11.18,10.61c-1.16,0-2.09.05-3.02-.02-.89-.06-1.29.1-1.13,1.17.33,2.28.56,4.57.72,6.86.08,1.18.52,1.57,1.7,1.45,1.16-.12,2.35-.09,3.52,0,.85.06,1.1-.31,1.15-1.07.11-1.41.26-2.82.41-4.23.14-1.31.86-3.05.28-3.82-.7-.94-2.54-.15-3.64-.32h0Zm20.1-11.83c-.97-2.59-1.92-5.08-2.82-7.6-.22-.63-.64-.69-1.13-.6-.66.12-1.6-.46-1.96.42-1.03,2.54-1.94,5.13-2.93,7.78h8.83Zm-12.43,5.93c.98,0,1.96-.06,2.93.02.95.08,1.06-.36.89-1.11-.4-1.86-1.55-3.35-2.43-4.98-.36-.66-2.86-.59-3.26.06-.64,1.04-1.32,2.08-1.77,3.2-.77,1.9-.1,2.82,1.88,2.82h1.76Zm-3.57,15.2c.09.04.18.1.27.11,1.85.01,3.71-.06,5.55.04,1.32.07,1.6-.5,1.68-1.72.1-1.53-.38-2.08-1.89-1.85-.67.1-1.36.02-2.04.02-2.27,0-3.47,1.14-3.57,3.42h0Zm3.86-4.59c.93,0,1.87-.05,2.79.02,1.14.08.76-.73.8-1.28.06-.6.12-1.16-.84-1.11-1.52.08-3.06.18-4.55-.03-1.59-.22-1.51.8-1.57,1.72-.09,1.32.95.55,1.45.66.61.13,1.27.03,1.91.03h0Zm.62-7.09c.73,0,1.46-.05,2.19.01,1,.09.8-.61.77-1.15-.03-.49.35-1.24-.71-1.22-1.81.04-3.61.04-5.41,0-.66-.01-.89.39-.55.76.64.71.92,2.05,2.39,1.61.4-.12.87-.02,1.31-.02h0Zm-.29,3.54c.83,0,1.66-.04,2.48.01,1.14.07.74-.75.78-1.29.05-.58.15-1.17-.83-1.1-1.31.09-2.63.02-3.94.03-.77,0-1.79,1.12-1.8,1.87,0,.55.35.48.68.49.87,0,1.75,0,2.63,0Zm-8.63-2.36c1.37,0,2.74,0,4.11,0,.43,0,.75-.01.75-.6s-.36-.58-.76-.58h-7.93c-.41,0-.76-.01-.75.59,0,.6.36.59.77.59h3.82Zm-.02-2.35c1.07,0,2.15.02,3.22-.02.27-.01.75.23.76-.36,0-.4-.04-.8-.59-.8h-6.44c-.54,0-.63.4-.63.8,0,.58.48.35.76.36.98.03,1.95.01,2.92.01h0ZM29.2,3.6c.52,0,.81-.04,1.1,0,1.17.17.86-.66.93-1.29.08-.77-.11-1.2-1-1.08-.53.07-1.07.05-1.6,0-.65-.05-.87.12-.96.85-.19,1.53.55,1.73,1.53,1.51h0Zm-7.65,5.3c-.34,0-.49.01-.64,0-.86-.06-1.51-.12-1.51,1.2,0,1.39.75,1.16,1.56,1.16.39,0,.78-.03,1.17,0,.58.05.83-.08.88-.77.1-1.3-.22-1.98-1.46-1.59h0ZM4.74,13.59v2.48c0,.38.19.5.54.49.28-.02.63.04.62-.39,0-1.6.01-3.21-.04-4.81-.02-.43-.4-.7-.82-.64-.5.08-.27.54-.29.83-.04.68-.01,1.36,0,2.04Z"/><path class="cls-1" d="m3.63,25.18c-.34.63.5,1.88-.69,1.87-.95-.01-.53-1.19-.51-1.82.03-.73-.53-2.05.53-2.07,1.16-.02.31,1.34.67,2.02Z"/><path class="cls-1" d="m3.57,29.22c0,.4-.03.83-.53.86-.61.03-.64-.45-.64-.91,0-.42.11-.8.62-.78.5.02.57.41.56.83Z"/><path class="cls-1" d="m31.22,27.38c-.06-1.09.23-2.12.57-3.14.12-.35.33-.66.72-.56.48.12.55.51.39.93-.72,1.91-.69,3.81,0,5.72.15.42.08.82-.41.92-.39.08-.61-.21-.72-.58-.34-1.07-.65-2.15-.57-3.29h0Z"/><path class="cls-1" d="m15.92,28.89c.02,1.29-.98,2.35-2.26,2.38-1.34.04-2.44-1.03-2.43-2.38.01-1.27,1.07-2.31,2.34-2.32,1.29,0,2.32,1.02,2.34,2.31Zm-3.51.1c.13.69.51,1.17,1.27,1.1.67-.06,1.06-.51,1.04-1.19-.03-.76-.5-1.18-1.25-1.12-.66.05-1.02.5-1.07,1.2h0Z"/><path class="cls-1" d="m31.13,8.75c-.04.39-.2.78-.59.69-.81-.18-.79-1.02-1.02-1.61-.13-.33.15-.74.55-.66.84.17.69,1.07,1.06,1.58Z"/><path class="cls-1" d="m31.12,10.1c.72.02.76.61.92,1.03.11.31-.13.62-.42.67-.67.1-.76-.51-.92-.94-.15-.4.13-.62.43-.76h0Z"/></g></g></svg>