<?xml version="1.0" encoding="UTF-8"?><svg id="Ebene_2" xmlns="http://www.w3.org/2000/svg" viewBox="0 0 58.87 56.19"><defs><style>.cls-1{fill:#a4c55a;stroke-width:0px;}</style></defs><g id="Ebene_1-2"><path class="cls-1" d="m29.3,0c1.75.4,2.06,1.73,2.48,2.96,1.45,4.33,3.1,8.6,4.26,13.01.81,3.07,2.26,4.16,5.45,3.98,4.72-.27,9.48-.06,14.22-.03,1.13,0,2.44-.11,2.99,1.16.68,1.59-.62,2.39-1.63,3.16-3.9,2.96-7.81,5.91-11.8,8.76-1.93,1.38-2.78,2.61-1.74,5.24,1.73,4.38,2.83,9.01,4.17,13.54.4,1.36,1.44,2.9-.16,4.01-1.58,1.09-2.69-.42-3.85-1.23-3.61-2.52-7.3-4.94-10.78-7.63-2.44-1.88-4.37-2.06-6.91-.02-3.68,2.96-7.7,5.49-11.6,8.17-.92.63-1.93,1.59-3.1.82-1.39-.91-.82-2.34-.45-3.56,1.5-4.83,2.88-9.7,4.67-14.42.81-2.13.42-3.24-1.33-4.47-3.87-2.72-7.68-5.54-11.42-8.44-1.2-.93-3.23-1.7-2.68-3.67.6-2.12,2.68-1.38,4.21-1.41,4.25-.08,8.52-.34,12.74.03,3.56.32,4.88-1.26,5.77-4.32,1.27-4.38,2.93-8.65,4.35-12.99.42-1.28.69-2.53,2.15-2.67Z"/></g></svg>