<?xml version="1.0" encoding="UTF-8"?><svg id="Ebene_2" xmlns="http://www.w3.org/2000/svg" viewBox="0 0 35.43 35.55"><defs><style>.cls-1{fill:#183941;stroke-width:0px;}</style></defs><g id="Ebene_2-2"><g id="Ebene_1-2"><path class="cls-1" d="m29.62,35.55c-3.16-1.96-3.6-3.62-1.67-6.74.8-1.3,1.53-3.3,3.09-3.26,1.52.04,2.2,2.05,3.08,3.33.23.34.39.74.55,1.12,1.15,2.78.46,4.2-2.74,5.55h-2.3,0Zm1.36-8.36c-1.27,1.37-2.3,2.76-2.6,4.5-.16.91.19,1.63,1.09,2.07,1.1.53,2.21.53,3.26-.12.82-.51,1.11-1.25.88-2.16-.42-1.64-1.35-3.01-2.62-4.3h0Z"/><path class="cls-1" d="m0,20.29v-10.29c.38-.66,1.06-.56,1.69-.56,1.66,0,3.32,0,4.98,0,.9,0,1.89-.11,1.85,1.17-.02.63.52.49.94.58,2.24.47,3.96-.56,5.51-1.76.97-.75.2-2.01.41-3.02.41-1.89-.52-2.37-2.37-2.04-.88.15-1.78.17-2.67.23-2.07.12-3.32-.69-3.26-2.11.06-1.36,1.27-2.08,3.24-1.94,1.21.09,2.42.16,3.63.21.94.04,1.9.16,2.74-.46.47-.35,1.19-.38,1.66-.14,2.19,1.14,4.48.49,6.73.39,2.1-.09,3.34.63,3.31,2.06-.03,1.36-1.23,2.11-3.2,2-1.34-.08-2.68-.15-4.01-.28-.83-.08-1.16.18-1.09.97.06.76.01,1.54.01,2.3,0,1.86,1.82,3.52,3.91,3.58,1.59.04,3.21-.03,4.78.17,3.84.48,6.54,3.34,6.62,6.9.04,1.59-.03,3.19.03,4.78.03.94-.38,1.24-1.35,1.22-1.91-.04-3.84-.05-5.75,0-1.05.03-1.57-.28-1.45-1.31.04-.35.06-.72,0-1.06-.15-.89.53-2.35-.4-2.55-1.41-.31-3.05-.61-4.51.53-2.59,2.02-5.92,2.11-8.41.11-1.45-1.17-2.99-.63-4.5-.78-.15-.02-.46.13-.46.2-.04,2.28-1.92,1.35-3.1,1.46-1.27.12-2.55.03-3.83.03-.63,0-1.31.09-1.66-.59h-.01Zm33.89-.4c.55-5.45-3.48-7.74-7.97-7.34-.76.07-1.53-.02-2.3.02-.93.04-1.63-.16-2.36-.81-2.16-1.91-5.01-1.88-7.2,0-.53.45-.99.79-1.78.82-3.8.15-3.71.19-3.82,3.62-.04,1.41.47,1.71,1.83,1.59,1.65-.15,3.1.03,4.48,1.27,1.53,1.38,4.33,1.37,5.81,0,1.37-1.28,2.84-1.31,4.49-1.28,3.57.06,3.44-.54,3.25,2.98-.1,1.89.59,2.22,2.42,2.14,3.14-.14,3.15-.04,3.15-2.99h0ZM6.98,15.16v-.71c0-3.96,0-3.93-4.31-3.67-.81.05-1.12.24-1.1,1.01.04,2.24.04,4.47,0,6.7-.01.76.27.97,1.09,1.02,4.34.27,4.33.29,4.33-3.66v-.71h0ZM21.36,2.93c1.34.1,2.67.21,4.01.28.61.04,1.48.19,1.43-.67-.04-.83-.9-.61-1.51-.61-2.48-.01-5.02.95-7.42-.42-.18-.1-.67.05-.85.23-.62.62-1.39.48-2.14.44-1.72-.09-3.44-.19-5.16-.28-.56-.03-1.08.1-1.06.71.02.49.47.64.97.62.19-.01.38-.03.57-.02,2.47.08,5.01-1.05,7.41.39.15.09.57,0,.71-.13.89-.9,2.01-.5,3.05-.54h0Zm-2.77,4.13c0-.29.01-.59,0-.89-.03-.55.23-1.17-.87-1.16-1.12.02-.8.69-.82,1.2-.03.71.01,1.42-.01,2.12-.02.61.39.62.88.63.54.02.86-.1.83-.67-.02-.41,0-.82,0-1.24h0Z"/></g></g></svg>